{"accessors":[{"bufferView":0,"componentType":5126,"count":10710,"max":[950.5,284.87066650390625,222.0],"min":[-2.6255653907795735e-15,0.0,-30.0],"type":"VEC3"},{"bufferView":1,"componentType":5126,"count":10710,"max":[1.0,1.0,1.0],"min":[-1.0,-1.0,-1.0],"type":"VEC3"},{"bufferView":2,"componentType":5126,"count":10710,"type":"VEC3"},{"bufferView":3,"componentType":5125,"count":38199,"max":[10709.0],"min":[0.0],"type":"SCALAR"},{"bufferView":4,"componentType":5126,"count":9368,"max":[950.5,284.87066650390625,222.0],"min":[-2.6255653907795735e-15,0.0,-30.0],"type":"VEC3"}],"asset":{"generator":"MPU-Cloud Converter 2020","version":"2.0"},"bufferViews":[{"buffer":0,"byteLength":128520,"byteOffset":0},{"buffer":0,"byteLength":128520,"byteOffset":128520},{"buffer":0,"byteLength":128520,"byteOffset":257040},{"buffer":0,"byteLength":152796,"byteOffset":385560},{"buffer":0,"byteLength":112416,"byteOffset":538356}],"buffers":[{"byteLength":650772,"uri":"data:application/octet-stream;base64,"}],"materials":[{"pbrMetallicRoughness":{"baseColorFactor":[1.0,1.0,1.0,1.0],"metallicFactor":0.5,"roughnessFactor":0.800000011920929}},{"pbrMetallicRoughness":{"baseColorFactor":[0.0,0.0,0.0,1.0],"metallicFactor":0.10000000149011612,"roughnessFactor":1.0}}],"meshes":[{"primitives":[{"attributes":{"COLOR_0":2,"NORMAL":1,"POSITION":0},"indices":3,"material":0,"mode":4}]},{"primitives":[{"attributes":{"POSITION":4},"material":1,"mode":1}]}],"nodes":[{"children":[1,2],"extras":{"type":""},"name":""},{"extras":{"type":""},"mesh":0,"name":""},{"extras":{"type":""},"mesh":1,"name":""}],"scene":0,"scenes":[{"nodes":[0]}]}